<?xml version="1.0" encoding="UTF-8"?>
<svg id="Layer_2" data-name="Layer 2" xmlns="http://www.w3.org/2000/svg" xmlns:xlink="http://www.w3.org/1999/xlink" viewBox="0 0 353.01 101.14">
  <defs>
    <style>
      .cls-1 {
        fill: url(#linear-gradient);
      }

      .cls-2 {
        fill: #191919;
      }

      .cls-3 {
        fill: #2948ff;
      }

      .cls-4 {
        fill: url(#linear-gradient-3);
      }

      .cls-5 {
        fill: url(#linear-gradient-4);
      }

      .cls-6 {
        fill: url(#linear-gradient-2);
      }
    </style>
    <linearGradient id="linear-gradient" x1="-13.26" y1="72.61" x2="14.05" y2="46.41" gradientUnits="userSpaceOnUse">
      <stop offset="0" stop-color="#396afc"/>
      <stop offset="1" stop-color="#396afc"/>
    </linearGradient>
    <linearGradient id="linear-gradient-2" x1="2.95" y1="89.52" x2="30.26" y2="63.32" xlink:href="#linear-gradient"/>
    <linearGradient id="linear-gradient-3" x1="-9.29" y1="76.75" x2="18.02" y2="50.55" xlink:href="#linear-gradient"/>
    <linearGradient id="linear-gradient-4" x1="6.9" y1="93.63" x2="34.21" y2="67.43" xlink:href="#linear-gradient"/>
  </defs>
  <g id="Layer_2-2" data-name="Layer 2">
    <g>
      <g>
        <g>
          <path class="cls-2" d="M83.53,32.95h7.63l11.41,32.26h-7.31l-2.13-6.63h-11.88l-2.19,6.63h-7.05l11.52-32.26Zm-.44,20.07h8.26l-4.08-12.69-4.19,12.69Z"/>
          <path class="cls-2" d="M111.53,55.25c.21,1.47,.62,2.58,1.23,3.3,1.12,1.33,3.03,1.99,5.74,1.99,1.62,0,2.94-.18,3.96-.53,1.92-.67,2.88-1.92,2.88-3.74,0-1.06-.47-1.89-1.41-2.47-.94-.57-2.43-1.07-4.48-1.51l-3.49-.77c-3.43-.76-5.79-1.58-7.07-2.47-2.17-1.49-3.26-3.82-3.26-6.98,0-2.89,1.06-5.29,3.19-7.2,2.13-1.91,5.25-2.87,9.37-2.87,3.44,0,6.38,.9,8.81,2.7s3.7,4.42,3.82,7.85h-6.48c-.12-1.94-.99-3.32-2.6-4.14-1.08-.54-2.42-.81-4.02-.81-1.78,0-3.2,.35-4.26,1.05-1.06,.7-1.59,1.68-1.59,2.93,0,1.15,.52,2.01,1.57,2.58,.67,.38,2.1,.82,4.29,1.34l5.66,1.34c2.48,.58,4.34,1.36,5.58,2.34,1.92,1.52,2.88,3.71,2.88,6.59s-1.14,5.4-3.42,7.34c-2.28,1.95-5.5,2.92-9.66,2.92s-7.59-.96-10.02-2.88c-2.43-1.92-3.65-4.56-3.65-7.91h6.43Z"/>
          <path class="cls-2" d="M145.8,32.95h7.63l11.41,32.26h-7.31l-2.13-6.63h-11.88l-2.19,6.63h-7.05l11.52-32.26Zm-.44,20.07h8.26l-4.08-12.69-4.19,12.69Z"/>
          <path class="cls-2" d="M192.34,33.06v3.83h-10.83v28.32h-4.42v-28.32h-10.83v-3.83h26.09Z"/>
          <path class="cls-2" d="M196.74,33.06h23.44v3.94h-19.19v9.76h17.75v3.72h-17.75v10.9h19.52v3.83h-23.77V33.06Z"/>
          <path class="cls-2" d="M249.24,35.4c2.25,2.14,3.49,4.58,3.74,7.31h-4.25c-.48-2.07-1.44-3.71-2.88-4.92-1.44-1.21-3.45-1.82-6.05-1.82-3.17,0-5.72,1.11-7.67,3.34-1.95,2.23-2.92,5.64-2.92,10.23,0,3.76,.88,6.82,2.64,9.16,1.76,2.34,4.38,3.51,7.87,3.51,3.21,0,5.65-1.23,7.33-3.7,.89-1.3,1.55-3.01,1.99-5.12h4.25c-.38,3.38-1.63,6.22-3.76,8.51-2.55,2.76-6,4.14-10.33,4.14-3.74,0-6.87-1.13-9.41-3.39-3.34-2.99-5.01-7.61-5.01-13.85,0-4.74,1.25-8.63,3.76-11.67,2.71-3.3,6.46-4.95,11.23-4.95,4.07,0,7.23,1.07,9.48,3.22Z"/>
          <path class="cls-2" d="M258.7,33.06h4.4v13.29h16.72v-13.29h4.4v32.15h-4.4v-15.04h-16.72v15.04h-4.4V33.06Z"/>
          <path class="cls-2" d="M290.96,33.06h5.14l16.24,26.05v-26.05h4.14v32.15h-4.88l-16.48-26.02v26.02h-4.16V33.06Z"/>
          <path class="cls-2" d="M349.81,37.65c2.13,2.85,3.2,6.49,3.2,10.92,0,4.8-1.22,8.79-3.66,11.97-2.86,3.74-6.94,5.6-12.23,5.6-4.95,0-8.84-1.63-11.67-4.9-2.52-3.15-3.79-7.14-3.79-11.95,0-4.35,1.08-8.07,3.24-11.16,2.77-3.97,6.87-5.95,12.3-5.95s9.88,1.82,12.61,5.47Zm-3.84,20.48c1.71-2.75,2.57-5.91,2.57-9.49,0-3.78-.99-6.82-2.97-9.13s-4.68-3.46-8.11-3.46-6.04,1.14-8.14,3.42c-2.1,2.28-3.15,5.65-3.15,10.1,0,3.56,.9,6.56,2.7,9.01,1.8,2.44,4.72,3.67,8.77,3.67s6.61-1.38,8.33-4.13Z"/>
        </g>
        <g>
          <path class="cls-3" d="M245.08,80.93l2.1,.53c-.44,1.73-1.24,3.05-2.38,3.95-1.15,.91-2.55,1.36-4.2,1.36s-3.11-.35-4.18-1.05c-1.07-.7-1.89-1.71-2.45-3.03-.56-1.32-.84-2.74-.84-4.26,0-1.66,.32-3.1,.95-4.33,.63-1.23,1.53-2.17,2.7-2.81,1.17-.64,2.45-.96,3.86-.96,1.59,0,2.93,.41,4.01,1.22,1.08,.81,1.84,1.95,2.27,3.42l-2.07,.49c-.37-1.16-.9-2-1.61-2.53-.7-.53-1.58-.79-2.65-.79-1.22,0-2.24,.29-3.06,.88-.82,.59-1.4,1.37-1.73,2.36s-.5,2.01-.5,3.05c0,1.35,.2,2.53,.59,3.54s1.01,1.76,1.84,2.26,1.73,.75,2.7,.75c1.18,0,2.18-.34,2.99-1.02,.82-.68,1.37-1.69,1.66-3.03Z"/>
          <path class="cls-3" d="M250.58,80.75c0-2.13,.59-3.71,1.78-4.74,.99-.85,2.2-1.28,3.62-1.28,1.58,0,2.88,.52,3.88,1.56,1.01,1.04,1.51,2.47,1.51,4.3,0,1.48-.22,2.65-.67,3.5-.44,.85-1.09,1.51-1.94,1.98s-1.78,.71-2.78,.71c-1.61,0-2.92-.52-3.91-1.55s-1.49-2.52-1.49-4.47Zm2.01,0c0,1.48,.32,2.58,.97,3.31,.64,.73,1.45,1.1,2.43,1.1s1.78-.37,2.42-1.11c.64-.74,.97-1.86,.97-3.37,0-1.42-.32-2.5-.97-3.24-.65-.73-1.45-1.1-2.41-1.1s-1.79,.37-2.43,1.1c-.64,.73-.97,1.83-.97,3.31Z"/>
          <path class="cls-3" d="M265.44,86.51v-11.52h1.76v1.64c.85-1.27,2.07-1.9,3.67-1.9,.69,0,1.33,.12,1.92,.37,.58,.25,1.02,.58,1.31,.98,.29,.4,.49,.89,.61,1.44,.07,.36,.11,.99,.11,1.9v7.08h-1.95v-7.01c0-.8-.08-1.39-.23-1.78-.15-.39-.42-.71-.81-.94s-.84-.35-1.36-.35c-.83,0-1.55,.26-2.15,.79-.6,.53-.91,1.53-.91,3.01v6.29h-1.95Z"/>
          <path class="cls-3" d="M278.79,83.07l1.93-.3c.11,.77,.41,1.37,.91,1.78s1.19,.62,2.08,.62,1.56-.18,2-.55c.43-.37,.65-.79,.65-1.29,0-.44-.19-.79-.58-1.04-.27-.17-.93-.39-2-.66-1.43-.36-2.43-.67-2.98-.94-.55-.26-.97-.63-1.26-1.1s-.43-.98-.43-1.55c0-.51,.12-.99,.35-1.43s.56-.8,.96-1.09c.3-.22,.72-.41,1.24-.57,.52-.16,1.09-.23,1.69-.23,.9,0,1.7,.13,2.38,.39s1.19,.61,1.51,1.06,.55,1.04,.67,1.78l-1.91,.26c-.09-.59-.34-1.06-.75-1.39-.42-.33-1-.5-1.76-.5-.9,0-1.54,.15-1.92,.44-.38,.3-.57,.64-.57,1.04,0,.25,.08,.48,.24,.68,.16,.21,.41,.38,.75,.52,.2,.07,.77,.24,1.72,.5,1.38,.37,2.35,.67,2.89,.91,.55,.24,.97,.58,1.29,1.03,.31,.45,.47,1.01,.47,1.67s-.19,1.26-.57,1.84-.93,1.02-1.64,1.33-1.53,.47-2.43,.47c-1.5,0-2.64-.31-3.42-.93s-1.29-1.54-1.5-2.77Z"/>
          <path class="cls-3" d="M300.01,86.51v-1.69c-.9,1.3-2.12,1.95-3.66,1.95-.68,0-1.31-.13-1.9-.39s-1.03-.59-1.31-.98c-.29-.39-.49-.88-.6-1.45-.08-.38-.12-.99-.12-1.82v-7.14h1.95v6.39c0,1.02,.04,1.71,.12,2.06,.12,.51,.38,.92,.78,1.21,.4,.29,.89,.44,1.48,.44s1.14-.15,1.65-.45,.88-.71,1.09-1.23c.21-.52,.32-1.27,.32-2.25v-6.17h1.95v11.52h-1.75Z"/>
          <path class="cls-3" d="M306.55,86.51v-15.91h1.95v15.91h-1.95Z"/>
          <path class="cls-3" d="M317.58,84.76l.28,1.73c-.55,.12-1.04,.17-1.48,.17-.71,0-1.26-.11-1.65-.34-.39-.22-.67-.52-.82-.88s-.24-1.13-.24-2.31v-6.63h-1.43v-1.52h1.43v-2.85l1.94-1.17v4.02h1.96v1.52h-1.96v6.74c0,.56,.03,.92,.1,1.07s.18,.29,.34,.38c.16,.09,.38,.14,.67,.14,.22,0,.5-.03,.86-.08Z"/>
          <path class="cls-3" d="M321.27,72.85v-2.25h1.95v2.25h-1.95Zm0,13.66v-11.52h1.95v11.52h-1.95Z"/>
          <path class="cls-3" d="M327.98,86.51v-11.52h1.76v1.64c.85-1.27,2.07-1.9,3.67-1.9,.69,0,1.33,.12,1.92,.37,.58,.25,1.02,.58,1.31,.98,.29,.4,.49,.89,.61,1.44,.07,.36,.11,.99,.11,1.9v7.08h-1.95v-7.01c0-.8-.08-1.39-.23-1.78-.15-.39-.42-.71-.81-.94s-.84-.35-1.36-.35c-.83,0-1.55,.26-2.15,.79-.6,.53-.91,1.53-.91,3.01v6.29h-1.95Z"/>
          <path class="cls-3" d="M341.75,87.46l1.9,.28c.08,.59,.3,1.01,.66,1.28,.48,.36,1.15,.54,1.99,.54,.9,0,1.6-.18,2.09-.54,.49-.36,.82-.87,1-1.52,.1-.4,.15-1.23,.14-2.51-.85,1.01-1.92,1.51-3.19,1.51-1.58,0-2.81-.57-3.68-1.71-.87-1.14-1.3-2.51-1.3-4.11,0-1.1,.2-2.11,.6-3.04s.97-1.65,1.73-2.15,1.64-.76,2.66-.76c1.36,0,2.48,.55,3.36,1.65v-1.39h1.8v9.96c0,1.79-.18,3.06-.55,3.81-.37,.75-.94,1.34-1.74,1.77-.79,.43-1.77,.65-2.92,.65-1.37,0-2.48-.31-3.33-.93-.85-.62-1.25-1.55-1.23-2.79Zm1.62-6.92c0,1.51,.3,2.61,.9,3.31,.6,.69,1.35,1.04,2.26,1.04s1.65-.35,2.26-1.04,.91-1.77,.91-3.25-.31-2.47-.94-3.19c-.63-.72-1.38-1.07-2.26-1.07s-1.61,.35-2.21,1.06c-.61,.71-.91,1.75-.91,3.14Z"/>
        </g>
      </g>
      <g>
        <path class="cls-1" d="M61.5,30.39c0,1.4-1.13,2.52-2.52,2.52s-2.52-1.13-2.52-2.52c0-.14,.01-.29,.04-.43L30.9,4.38,5.05,30.23c0,.05,0,.1,0,.16,0,1.4-1.13,2.52-2.53,2.52s-2.52-1.13-2.52-2.52,1.13-2.52,2.52-2.52c.16,0,.32,.02,.47,.05L30.9,0l27.87,27.87c.07,0,.13,0,.2,0,1.4,0,2.52,1.13,2.52,2.52Z"/>
        <g>
          <path class="cls-6" d="M25.42,38.55c1.85-1.86,3.63-3.65,5.45-5.47,.14,.13,.31,.29,.47,.45,5.22,5.21,10.44,10.43,15.65,15.65,2.9,2.89,5.79,5.79,8.69,8.68,1.02,1.02,1.74,2.21,2,3.65,.43,2.35-.18,4.41-1.86,6.11-2.47,2.5-4.97,4.97-7.45,7.46-4.22,4.22-8.46,8.41-12.65,12.66-2.65,2.69-7.03,2.77-9.77,.02-6.67-6.71-13.38-13.39-20.07-20.08-1.46-1.47-2.23-3.23-2.15-5.31,.05-1.46,.56-2.76,1.59-3.82,1.37-1.41,2.78-2.79,4.17-4.19,.09-.09,.2-.16,.28-.22,1.8,1.81,3.58,3.6,5.41,5.45-.99,1.04-2.12,2.09-3.15,3.19,.41,.6,18.41,18.55,18.74,18.74,6.26-6.25,12.51-12.5,18.82-18.79-8.04-8.04-16.11-16.12-24.17-24.17Z"/>
          <path class="cls-4" d="M51.81,47.06c-1.89-1.9-3.65-3.68-5.45-5.48,.11-.11,.25-.27,.4-.41,.75-.75,1.51-1.5,2.26-2.25,.57-.57,.58-.57,.02-1.13-4.06-4.05-8.12-8.11-12.18-12.16-1.89-1.88-3.77-3.77-5.66-5.65-.16-.16-.34-.3-.49-.44-.41,.23-18.3,18.08-18.85,18.8,.15,.17,.3,.36,.47,.53,2.41,2.42,4.83,4.84,7.24,7.26,5.32,5.33,10.65,10.66,15.97,15.99,.16,.16,.32,.33,.52,.55-1.78,1.83-3.58,3.59-5.39,5.41-.24-.22-.42-.39-.6-.56-6.59-6.58-13.17-13.16-19.76-19.73-1.53-1.53-3.06-3.06-4.59-4.59-1.03-1.03-1.71-2.23-1.94-3.67-.37-2.29,.21-4.31,1.85-5.95,5.83-5.85,11.69-11.69,17.54-17.53,.89-.89,1.77-1.78,2.67-2.66,2.33-2.28,5.63-2.67,8.4-.97,.44,.27,.85,.61,1.22,.97,4.29,4.28,8.57,8.58,12.86,12.87,2.4,2.41,4.8,4.81,7.2,7.22,1.15,1.16,1.91,2.52,2.11,4.15,.23,1.92-.21,3.64-1.61,5.05-1.28,1.29-2.56,2.58-3.83,3.87-.15,.15-.25,.34-.38,.51Z"/>
        </g>
        <path class="cls-5" d="M61.5,70.75c0-1.4-1.13-2.52-2.52-2.52s-2.52,1.13-2.52,2.52c0,.14,.01,.29,.04,.43l-25.59,25.59L5.05,70.91c0-.05,0-.1,0-.16,0-1.4-1.13-2.52-2.53-2.52S0,69.36,0,70.75s1.13,2.52,2.52,2.52c.16,0,.32-.02,.47-.05l27.91,27.91,27.87-27.87c.07,0,.13,0,.2,0,1.4,0,2.52-1.13,2.52-2.52Z"/>
      </g>
    </g>
  </g>
</svg>