<?xml version="1.0" encoding="UTF-8"?>
<!DOCTYPE svg PUBLIC "-//W3C//DTD SVG 1.1//EN" "http://www.w3.org/Graphics/SVG/1.1/DTD/svg11.dtd">
<!-- Creator: CorelDRAW 2020 (64-Bit) -->
<svg xmlns="http://www.w3.org/2000/svg" xml:space="preserve" width="41.6667in" height="31.25in" version="1.1" style="shape-rendering:geometricPrecision; text-rendering:geometricPrecision; image-rendering:optimizeQuality; fill-rule:evenodd; clip-rule:evenodd"
viewBox="0 0 41666.66 31249.99"
 xmlns:xlink="http://www.w3.org/1999/xlink"
 xmlns:xodm="http://www.corel.com/coreldraw/odm/2003">
 <defs>
  <style type="text/css">
   <![CDATA[
    .fil0 {fill:#5E5E5E}
   ]]>
  </style>
 </defs>
 <g id="__x0023_Layer_x0020_1">
  <metadata id="CorelCorpID_0Corel-Layer"/>
  <path class="fil0" d="M20795.62 12014.85c3257.37,0 6213.07,-489.22 8350.85,-1281.07 2140.15,-792.72 3471.91,-1889.81 3471.91,-3100.18 0,-1209.46 -1331.87,-2303.24 -3474.25,-3091.53 -2137.95,-786.65 -5095.85,-1272.29 -8348.51,-1264.99 -3252.66,7.3 -6191.88,504.19 -8315.49,1296.89 -2121.34,791.83 -3431.85,1883.89 -3431.85,3085.19 0,1203.93 1310.38,2293.42 3429.47,3080.12 2123.5,788.31 5065.2,1275.57 8317.86,1275.57z"/>
  <path class="fil0" d="M20795.62 13290.67c-3252.66,0 -6194.38,-487.27 -8317.86,-1275.57 -2119.09,-786.69 -3429.47,-1876.19 -3429.47,-3080.13 0,0 0,1141.25 0,2343.86 0,1202.61 1310.38,2293.44 3429.47,3080.13 2123.48,788.31 5065.2,1275.57 8317.86,1275.57 3257.37,0 6213.07,-489.22 8350.87,-1281.04 2140.13,-792.74 3471.89,-1890.3 3471.89,-3100.2 0,-1209.91 0,-2343.86 0,-2343.86 0,1210.35 -1331.76,2307.46 -3471.89,3100.2 -2137.8,791.83 -5093.5,1281.05 -8350.87,1281.05z"/>
  <path class="fil0" d="M20795.62 17218.42c-3252.66,0 -6194.38,-487.27 -8317.86,-1275.57 -2119.09,-786.69 -3429.47,-1876.19 -3429.47,-3080.13 0,0 0,1141.25 0,2343.86 0,1202.61 1310.38,2293.44 3429.47,3080.14 2123.48,788.3 5065.2,1275.57 8317.86,1275.57 3257.37,0 6213.07,-489.22 8350.87,-1281.04 2140.13,-792.74 3471.89,-1890.3 3471.89,-3100.2 0,-1209.91 0,-2343.86 0,-2343.86 0,1210.35 -1331.76,2307.46 -3471.89,3100.2 -2137.8,791.83 -5093.5,1281.05 -8350.87,1281.05z"/>
  <path class="fil0" d="M20795.62 21146.17c-3252.66,0 -6194.38,-487.27 -8317.86,-1275.57 -2119.09,-786.69 -3429.47,-1876.19 -3429.47,-3080.13 0,0 0,1141.25 0,2343.86 0,1202.61 1310.38,2293.44 3429.47,3080.14 2123.48,788.31 5065.2,1275.57 8317.86,1275.57 3257.37,0 6213.07,-489.22 8350.87,-1281.04 2140.13,-792.74 3471.89,-1890.3 3471.89,-3100.2 0,-1209.91 0,-2343.86 0,-2343.86 0,1210.35 -1331.76,2307.46 -3471.89,3100.2 -2137.8,791.83 -5093.5,1281.05 -8350.87,1281.05z"/>
  <path class="fil0" d="M20795.62 25073.92c-3252.66,0 -6194.38,-487.27 -8317.86,-1275.57 -2119.09,-786.69 -3429.47,-1876.19 -3429.47,-3080.13 0,0 0,1141.25 0,2343.86 0,1202.61 1310.38,2293.44 3429.47,3080.14 2123.48,788.31 5065.2,1275.57 8317.86,1275.57 3257.37,0 6213.07,-489.22 8350.87,-1281.04 2140.13,-792.74 3471.89,-1890.3 3471.89,-3100.2 0,-1209.91 0,-2343.86 0,-2343.86 0,1210.35 -1331.76,2307.46 -3471.89,3100.2 -2137.8,791.83 -5093.5,1281.05 -8350.87,1281.05z"/>
 </g>
</svg>
