<?xml version="1.0" encoding="UTF-8"?>
<svg id="Layer_2" data-name="Layer 2" xmlns="http://www.w3.org/2000/svg" xmlns:xlink="http://www.w3.org/1999/xlink" viewBox="0 0 60 101.14">
  <defs>
    <style>
      .cls-1 {
        fill: url(#linear-gradient);
      }

      .cls-2 {
        fill: #191919;
      }

      .cls-3 {
        fill: #2948ff;
      }

      .cls-4 {
        fill: url(#linear-gradient-3);
      }

      .cls-5 {
        fill: url(#linear-gradient-4);
      }

      .cls-6 {
        fill: url(#linear-gradient-2);
      }
    </style>
    <linearGradient id="linear-gradient" x1="-13.26" y1="72.61" x2="14.05" y2="46.41" gradientUnits="userSpaceOnUse">
      <stop offset="0" stop-color="#396afc"/>
      <stop offset="1" stop-color="#396afc"/>
    </linearGradient>
    <linearGradient id="linear-gradient-2" x1="2.95" y1="89.52" x2="30.26" y2="63.32" xlink:href="#linear-gradient"/>
    <linearGradient id="linear-gradient-3" x1="-9.29" y1="76.75" x2="18.02" y2="50.55" xlink:href="#linear-gradient"/>
    <linearGradient id="linear-gradient-4" x1="6.9" y1="93.63" x2="34.21" y2="67.43" xlink:href="#linear-gradient"/>
  </defs>
  <g id="Layer_2-2" data-name="Layer 2">
    <g>
      <g>
         
        <g>
          </g>
      </g>
      <g>
        <path class="cls-1" d="M61.5,30.39c0,1.4-1.13,2.52-2.52,2.52s-2.52-1.13-2.52-2.52c0-.14,.01-.29,.04-.43L30.9,4.38,5.05,30.23c0,.05,0,.1,0,.16,0,1.4-1.13,2.52-2.53,2.52s-2.52-1.13-2.52-2.52,1.13-2.52,2.52-2.52c.16,0,.32,.02,.47,.05L30.9,0l27.87,27.87c.07,0,.13,0,.2,0,1.4,0,2.52,1.13,2.52,2.52Z"/>
        <g>
          <path class="cls-6" d="M25.42,38.55c1.85-1.86,3.63-3.65,5.45-5.47,.14,.13,.31,.29,.47,.45,5.22,5.21,10.44,10.43,15.65,15.65,2.9,2.89,5.79,5.79,8.69,8.68,1.02,1.02,1.74,2.21,2,3.65,.43,2.35-.18,4.41-1.86,6.11-2.47,2.5-4.97,4.97-7.45,7.46-4.22,4.22-8.46,8.41-12.65,12.66-2.65,2.69-7.03,2.77-9.77,.02-6.67-6.71-13.38-13.39-20.07-20.08-1.46-1.47-2.23-3.23-2.15-5.31,.05-1.46,.56-2.76,1.59-3.82,1.37-1.41,2.78-2.79,4.17-4.19,.09-.09,.2-.16,.28-.22,1.8,1.81,3.58,3.6,5.41,5.45-.99,1.04-2.12,2.09-3.15,3.19,.41,.6,18.41,18.55,18.74,18.74,6.26-6.25,12.51-12.5,18.82-18.79-8.04-8.04-16.11-16.12-24.17-24.17Z"/>
          <path class="cls-4" d="M51.81,47.06c-1.89-1.9-3.65-3.68-5.45-5.48,.11-.11,.25-.27,.4-.41,.75-.75,1.51-1.5,2.26-2.25,.57-.57,.58-.57,.02-1.13-4.06-4.05-8.12-8.11-12.18-12.16-1.89-1.88-3.77-3.77-5.66-5.65-.16-.16-.34-.3-.49-.44-.41,.23-18.3,18.08-18.85,18.8,.15,.17,.3,.36,.47,.53,2.41,2.42,4.83,4.84,7.24,7.26,5.32,5.33,10.65,10.66,15.97,15.99,.16,.16,.32,.33,.52,.55-1.78,1.83-3.58,3.59-5.39,5.41-.24-.22-.42-.39-.6-.56-6.59-6.58-13.17-13.16-19.76-19.73-1.53-1.53-3.06-3.06-4.59-4.59-1.03-1.03-1.71-2.23-1.94-3.67-.37-2.29,.21-4.31,1.85-5.95,5.83-5.85,11.69-11.69,17.54-17.53,.89-.89,1.77-1.78,2.67-2.66,2.33-2.28,5.63-2.67,8.4-.97,.44,.27,.85,.61,1.22,.97,4.29,4.28,8.57,8.58,12.86,12.87,2.4,2.41,4.8,4.81,7.2,7.22,1.15,1.16,1.91,2.52,2.11,4.15,.23,1.92-.21,3.64-1.61,5.05-1.28,1.29-2.56,2.58-3.83,3.87-.15,.15-.25,.34-.38,.51Z"/>
        </g>
        <path class="cls-5" d="M61.5,70.75c0-1.4-1.13-2.52-2.52-2.52s-2.52,1.13-2.52,2.52c0,.14,.01,.29,.04,.43l-25.59,25.59L5.05,70.91c0-.05,0-.1,0-.16,0-1.4-1.13-2.52-2.53-2.52S0,69.36,0,70.75s1.13,2.52,2.52,2.52c.16,0,.32-.02,.47-.05l27.91,27.91,27.87-27.87c.07,0,.13,0,.2,0,1.4,0,2.52-1.13,2.52-2.52Z"/>
      </g>
    </g>
  </g>
</svg>